<svg xmlns="http://www.w3.org/2000/svg" width="473" height="185" viewBox="0 0 473 185">
<g>
<path d="M 134.50 183.42 C126.42,184.66 133.92,184.80 207.50,184.78 C257.72,184.77 287.17,184.42 283.50,183.89 C267.26,181.55 254.67,175.63 244.40,165.50 C234.12,155.35 227.51,140.76 226.76,126.52 L 226.50 121.53 L 252.00 118.32 C266.02,116.55 279.13,115.08 281.12,115.05 L 284.74 115.00 L 285.21 122.25 C286.11,135.97 292.32,143.00 303.53,143.00 C311.68,143.00 316.98,139.68 320.21,132.55 L 322.50 127.50 L 322.79 65.25 L 323.07 3.00 L 384.10 3.00 L 383.73 65.75 C383.33,135.46 383.25,136.33 376.51,150.72 C368.73,167.32 349.00,180.44 326.00,184.31 C324.62,184.54 357.14,184.79 398.25,184.86 C464.09,184.98 473.00,184.82 473.00,183.50 C473.00,182.20 469.06,182.00 443.50,182.00 L 414.00 182.00 L 414.00 133.00 L 473.00 133.00 L 473.00 185.00 L 0.00 185.00 L 85.50 184.84 L 75.46 183.07 C63.50,180.96 56.92,178.91 47.50,174.36 C24.13,163.06 8.57,142.06 2.78,114.00 C1.15,106.15 0.90,101.82 1.28,89.00 C1.81,71.48 3.74,62.33 9.44,50.31 C22.54,22.65 45.36,7.01 80.50,1.61 C88.95,0.31 86.76,0.22 44.75,0.11 L 0.00 0.00 L 473.00 0.00 L 296.25 0.14 C202.57,0.22 129.69,0.61 129.69,1.02 C129.69,1.03 129.79,1.05 130.00,1.06 C155.48,2.94 170.53,9.11 183.26,22.90 C190.20,30.42 200.46,50.36 197.75,51.06 C197.61,51.10 184.53,53.27 168.69,55.89 L 139.88 60.64 L 138.52 57.38 C136.37,52.25 129.44,45.45 123.73,42.86 C119.09,40.77 117.02,40.50 105.50,40.50 C93.03,40.50 92.23,40.63 86.00,43.60 C74.69,48.99 67.30,58.48 63.89,72.00 C61.81,80.23 62.07,105.69 64.31,113.95 C67.96,127.39 74.63,136.02 85.26,141.05 C100.64,148.32 119.95,147.23 139.75,137.98 L 148.00 134.13 L 148.00 118.04 L 107.50 117.50 L 106.96 80.00 L 201.00 80.00 L 201.00 156.89 L 191.01 162.54 C170.65,174.07 153.14,180.54 134.50,183.42 ZM 91.27 0.31 C90.30,0.56 90.85,0.78 92.50,0.81 C94.15,0.83 94.95,0.62 94.27,0.34 C93.59,0.07 92.24,0.05 91.27,0.31 Z" fill="rgb(0,0,0)"/>
<path d="M 0.00 0.00 L 0.16 85.50 L 1.93 75.46 C2.24,73.69 2.56,72.04 2.88,70.47 C1.98,75.72 1.51,81.62 1.28,89.00 C0.90,101.82 1.15,106.15 2.78,114.00 C6.43,131.71 13.99,146.61 24.94,158.04 C12.65,145.31 4.81,128.40 1.58,107.50 C0.27,99.02 0.19,100.98 0.10,141.75 L 0.00 185.00 ZM 171.58 12.86 C181.01,18.82 188.03,27.11 193.47,38.29 L 193.48 38.31 C190.46,32.61 186.50,26.40 183.26,22.90 C179.62,18.95 175.79,15.63 171.58,12.86 ZM 136.80 0.79 C133.48,1.07 135.87,1.45 139.50,2.00 C139.95,2.07 140.39,2.14 140.83,2.21 C137.44,1.72 133.84,1.34 130.00,1.06 C129.79,1.05 129.69,1.03 129.69,1.02 C129.69,0.94 132.17,0.87 136.80,0.79 ZM 91.27 0.31 C92.24,0.05 93.59,0.07 94.27,0.34 C94.95,0.62 94.15,0.83 92.50,0.81 C90.85,0.78 90.30,0.56 91.27,0.31 ZM 45.59 173.40 C46.22,173.73 46.86,174.05 47.50,174.36 C55.35,178.15 61.23,180.21 69.89,182.01 C66.23,181.26 62.94,180.49 61.48,180.03 C55.80,178.20 50.50,175.99 45.59,173.40 ZM 6.93 56.05 C7.89,53.54 8.98,51.08 10.28,48.50 C15.33,38.39 21.75,29.94 29.66,23.06 C21.30,30.34 14.61,39.39 9.44,50.31 C8.50,52.28 7.67,54.18 6.93,56.05 Z" fill="rgb(76,76,76)"/>
<path d="M 0.00 0.00 L 0.10 40.75 C0.16,63.96 0.56,80.21 1.02,78.50 C1.27,77.61 1.76,75.63 2.34,73.22 C2.20,73.95 2.07,74.69 1.93,75.46 L 0.16 85.50 ZM 2.22 111.23 C1.46,107.71 0.78,104.93 0.51,104.25 C0.72,102.32 1.05,104.04 1.58,107.50 C1.78,108.76 1.99,110.00 2.22,111.23 ZM 8.96 51.24 C11.88,44.60 15.61,38.52 20.08,33.05 C16.37,37.69 13.11,42.83 10.28,48.50 C9.81,49.43 9.38,50.34 8.96,51.24 ZM 80.08 1.68 C82.06,1.28 83.62,0.92 84.37,0.69 C84.86,0.90 83.24,1.19 80.50,1.61 ZM 136.87 1.58 C137.10,1.62 137.33,1.66 137.57,1.70 C137.32,1.66 137.09,1.62 136.87,1.58 Z" fill="rgb(186,186,186)"/>
<path d="M 0.00 144.33 C0.00,121.97 0.19,103.86 0.43,104.10 C0.67,104.34 1.74,108.80 2.80,114.02 C8.51,141.98 24.13,163.06 47.50,174.36 C56.92,178.91 63.50,180.96 75.46,183.07 L 85.50 184.84 L 42.75 184.92 L 0.00 185.00 L 0.00 144.33 ZM 134.50 183.42 C153.14,180.54 170.65,174.07 191.01,162.54 L 201.00 156.89 L 201.00 118.44 L 201.00 80.00 L 153.98 80.00 L 106.96 80.00 L 107.23 98.75 L 107.50 117.50 L 127.75 117.77 L 148.00 118.04 L 148.00 126.09 L 148.00 134.13 L 139.75 137.98 C119.95,147.23 100.64,148.32 85.26,141.05 C74.63,136.02 67.96,127.39 64.31,113.95 C62.07,105.69 61.81,80.23 63.89,72.00 C67.30,58.48 74.69,48.99 86.00,43.60 C92.23,40.63 93.03,40.50 105.50,40.50 C117.02,40.50 119.09,40.77 123.73,42.86 C129.44,45.45 136.37,52.25 138.52,57.38 L 139.88 60.64 L 168.69 55.89 C184.53,53.27 197.61,51.10 197.75,51.06 C198.85,50.78 197.30,46.16 193.47,38.29 C183.48,17.75 167.24,6.40 142.18,2.46 C136.85,1.62 132.05,0.76 131.50,0.54 C130.95,0.33 207.56,0.12 301.75,0.08 L 473.00 0.00 L 473.00 66.50 L 473.00 133.00 L 443.50 133.00 L 414.00 133.00 L 414.00 157.50 L 414.00 182.00 L 443.50 182.00 C469.06,182.00 473.00,182.20 473.00,183.50 C473.00,184.82 464.09,184.98 398.25,184.86 C357.14,184.79 324.62,184.54 326.00,184.31 C349.00,180.44 368.73,167.32 376.51,150.72 C383.25,136.33 383.33,135.46 383.73,65.75 L 384.10 3.00 L 353.58 3.00 L 323.07 3.00 L 322.79 65.25 L 322.50 127.50 L 320.21 132.55 C316.98,139.68 311.68,143.00 303.53,143.00 C292.32,143.00 286.11,135.97 285.21,122.25 L 284.74 115.00 L 281.12 115.05 C279.13,115.08 266.02,116.55 252.00,118.32 L 226.50 121.53 L 226.76 126.52 C227.51,140.76 234.12,155.35 244.40,165.50 C254.67,175.63 267.26,181.55 283.50,183.89 C287.17,184.42 257.72,184.77 207.50,184.78 C133.92,184.80 126.42,184.66 134.50,183.42 ZM 0.10 40.75 L 0.00 0.00 L 42.67 -0.00 C66.13,-0.00 85.11,0.22 84.84,0.49 C84.57,0.76 80.48,1.66 75.75,2.48 C37.90,9.08 11.78,32.37 3.91,66.54 C2.77,71.47 1.48,76.85 1.02,78.50 C0.56,80.21 0.16,63.96 0.10,40.75 Z" fill="rgb(254,254,254)"/>
</g>
</svg>